<svg xmlns="http://www.w3.org/2000/svg" width="1754" height="612" viewBox="0 0 1754 612"><defs><style>.a,.b,.f{fill:none;}.a{stroke:#a6a6fd;stroke-width:20px;}.a,.b{opacity:0.1;}.b{stroke:#ff851c;stroke-width:15px;}.c{opacity:0.58;}.d{fill:#ff851c;}.e{stroke:none;}</style></defs><g transform="translate(154 -1969)"><g class="a" transform="translate(1427 2408)"><circle class="e" cx="86.5" cy="86.5" r="86.5"/><circle class="f" cx="86.5" cy="86.5" r="76.5"/></g><g class="b" transform="translate(369 1969)"><circle class="e" cx="63" cy="63" r="63"/><circle class="f" cx="63" cy="63" r="55.5"/></g><g class="b" transform="translate(1334 2122)"><circle class="e" cx="63" cy="63" r="63"/><circle class="f" cx="63" cy="63" r="55.5"/></g><g class="c" transform="translate(-2383 1381)"><circle class="d" cx="2.5" cy="2.5" r="2.5" transform="translate(2229 905)"/><circle class="d" cx="2.5" cy="2.5" r="2.5" transform="translate(2349 905)"/><circle class="d" cx="2.5" cy="2.5" r="2.5" transform="translate(2229 985)"/><circle class="d" cx="2.5" cy="2.5" r="2.5" transform="translate(2349 985)"/><circle class="d" cx="2.5" cy="2.5" r="2.5" transform="translate(2289 905)"/><circle class="d" cx="2.5" cy="2.5" r="2.5" transform="translate(2409 905)"/><circle class="d" cx="2.5" cy="2.5" r="2.5" transform="translate(2289 985)"/><circle class="d" cx="2.5" cy="2.5" r="2.5" transform="translate(2409 985)"/><circle class="d" cx="2.5" cy="2.5" r="2.5" transform="translate(2229 945)"/><circle class="d" cx="2.5" cy="2.5" r="2.5" transform="translate(2349 945)"/><circle class="d" cx="2.5" cy="2.5" r="2.5" transform="translate(2229 1025)"/><circle class="d" cx="2.5" cy="2.5" r="2.5" transform="translate(2349 1025)"/><circle class="d" cx="2.5" cy="2.5" r="2.5" transform="translate(2289 945)"/><circle class="d" cx="2.5" cy="2.5" r="2.5" transform="translate(2409 945)"/><circle class="d" cx="2.5" cy="2.5" r="2.5" transform="translate(2289 1025)"/><circle class="d" cx="2.5" cy="2.5" r="2.5" transform="translate(2409 1025)"/><circle class="d" cx="2.5" cy="2.5" r="2.5" transform="translate(2229 925)"/><circle class="d" cx="2.5" cy="2.5" r="2.5" transform="translate(2349 925)"/><circle class="d" cx="2.5" cy="2.5" r="2.5" transform="translate(2229 1005)"/><circle class="d" cx="2.5" cy="2.5" r="2.5" transform="translate(2349 1005)"/><circle class="d" cx="2.5" cy="2.5" r="2.5" transform="translate(2289 925)"/><circle class="d" cx="2.5" cy="2.5" r="2.5" transform="translate(2409 925)"/><circle class="d" cx="2.5" cy="2.5" r="2.5" transform="translate(2289 1005)"/><circle class="d" cx="2.5" cy="2.5" r="2.5" transform="translate(2409 1005)"/><circle class="d" cx="2.5" cy="2.5" r="2.5" transform="translate(2229 965)"/><circle class="d" cx="2.5" cy="2.5" r="2.5" transform="translate(2349 965)"/><circle class="d" cx="2.5" cy="2.5" r="2.5" transform="translate(2229 1045)"/><circle class="d" cx="2.5" cy="2.5" r="2.5" transform="translate(2349 1045)"/><circle class="d" cx="2.5" cy="2.5" r="2.5" transform="translate(2289 965)"/><circle class="d" cx="2.5" cy="2.5" r="2.5" transform="translate(2409 965)"/><circle class="d" cx="2.5" cy="2.5" r="2.5" transform="translate(2289 1045)"/><circle class="d" cx="2.5" cy="2.5" r="2.5" transform="translate(2409 1045)"/><circle class="d" cx="2.5" cy="2.5" r="2.5" transform="translate(2249 905)"/><circle class="d" cx="2.5" cy="2.5" r="2.5" transform="translate(2369 905)"/><circle class="d" cx="2.5" cy="2.5" r="2.5" transform="translate(2249 985)"/><circle class="d" cx="2.5" cy="2.5" r="2.5" transform="translate(2369 985)"/><circle class="d" cx="2.5" cy="2.5" r="2.5" transform="translate(2309 905)"/><circle class="d" cx="2.5" cy="2.5" r="2.5" transform="translate(2429 905)"/><circle class="d" cx="2.5" cy="2.5" r="2.5" transform="translate(2309 985)"/><circle class="d" cx="2.5" cy="2.5" r="2.5" transform="translate(2429 985)"/><circle class="d" cx="2.5" cy="2.5" r="2.5" transform="translate(2249 945)"/><circle class="d" cx="2.5" cy="2.5" r="2.5" transform="translate(2369 945)"/><circle class="d" cx="2.5" cy="2.5" r="2.5" transform="translate(2249 1025)"/><circle class="d" cx="2.5" cy="2.5" r="2.5" transform="translate(2369 1025)"/><circle class="d" cx="2.5" cy="2.5" r="2.5" transform="translate(2309 945)"/><circle class="d" cx="2.5" cy="2.5" r="2.5" transform="translate(2429 945)"/><circle class="d" cx="2.5" cy="2.5" r="2.5" transform="translate(2309 1025)"/><circle class="d" cx="2.5" cy="2.5" r="2.5" transform="translate(2429 1025)"/><circle class="d" cx="2.5" cy="2.5" r="2.5" transform="translate(2249 925)"/><circle class="d" cx="2.5" cy="2.5" r="2.5" transform="translate(2369 925)"/><circle class="d" cx="2.5" cy="2.5" r="2.5" transform="translate(2249 1005)"/><circle class="d" cx="2.5" cy="2.5" r="2.5" transform="translate(2369 1005)"/><circle class="d" cx="2.5" cy="2.5" r="2.5" transform="translate(2309 925)"/><circle class="d" cx="2.5" cy="2.5" r="2.5" transform="translate(2429 925)"/><circle class="d" cx="2.5" cy="2.5" r="2.5" transform="translate(2309 1005)"/><circle class="d" cx="2.5" cy="2.5" r="2.5" transform="translate(2429 1005)"/><circle class="d" cx="2.5" cy="2.5" r="2.5" transform="translate(2249 965)"/><circle class="d" cx="2.5" cy="2.5" r="2.5" transform="translate(2369 965)"/><circle class="d" cx="2.5" cy="2.5" r="2.5" transform="translate(2249 1045)"/><circle class="d" cx="2.5" cy="2.5" r="2.5" transform="translate(2369 1045)"/><circle class="d" cx="2.5" cy="2.5" r="2.5" transform="translate(2309 965)"/><circle class="d" cx="2.5" cy="2.5" r="2.5" transform="translate(2429 965)"/><circle class="d" cx="2.5" cy="2.5" r="2.5" transform="translate(2309 1045)"/><circle class="d" cx="2.5" cy="2.5" r="2.5" transform="translate(2429 1045)"/><circle class="d" cx="2.5" cy="2.5" r="2.5" transform="translate(2269 905)"/><circle class="d" cx="2.5" cy="2.5" r="2.5" transform="translate(2389 905)"/><circle class="d" cx="2.5" cy="2.5" r="2.5" transform="translate(2269 985)"/><circle class="d" cx="2.5" cy="2.5" r="2.5" transform="translate(2389 985)"/><circle class="d" cx="2.5" cy="2.5" r="2.5" transform="translate(2329 905)"/><circle class="d" cx="2.5" cy="2.5" r="2.5" transform="translate(2449 905)"/><circle class="d" cx="2.5" cy="2.5" r="2.5" transform="translate(2329 985)"/><circle class="d" cx="2.5" cy="2.5" r="2.5" transform="translate(2449 985)"/><circle class="d" cx="2.5" cy="2.5" r="2.5" transform="translate(2269 945)"/><circle class="d" cx="2.5" cy="2.5" r="2.5" transform="translate(2389 945)"/><circle class="d" cx="2.5" cy="2.5" r="2.5" transform="translate(2269 1025)"/><circle class="d" cx="2.5" cy="2.5" r="2.5" transform="translate(2389 1025)"/><circle class="d" cx="2.5" cy="2.5" r="2.5" transform="translate(2329 945)"/><circle class="d" cx="2.5" cy="2.5" r="2.5" transform="translate(2449 945)"/><circle class="d" cx="2.5" cy="2.5" r="2.5" transform="translate(2329 1025)"/><circle class="d" cx="2.5" cy="2.5" r="2.5" transform="translate(2449 1025)"/><circle class="d" cx="2.5" cy="2.5" r="2.5" transform="translate(2269 925)"/><circle class="d" cx="2.5" cy="2.5" r="2.5" transform="translate(2389 925)"/><circle class="d" cx="2.5" cy="2.5" r="2.5" transform="translate(2269 1005)"/><circle class="d" cx="2.5" cy="2.5" r="2.5" transform="translate(2389 1005)"/><circle class="d" cx="2.5" cy="2.5" r="2.5" transform="translate(2329 925)"/><circle class="d" cx="2.5" cy="2.5" r="2.5" transform="translate(2449 925)"/><circle class="d" cx="2.5" cy="2.5" r="2.5" transform="translate(2329 1005)"/><circle class="d" cx="2.5" cy="2.5" r="2.5" transform="translate(2449 1005)"/><circle class="d" cx="2.5" cy="2.5" r="2.5" transform="translate(2269 965)"/><circle class="d" cx="2.5" cy="2.5" r="2.5" transform="translate(2389 965)"/><circle class="d" cx="2.5" cy="2.5" r="2.5" transform="translate(2269 1045)"/><circle class="d" cx="2.5" cy="2.5" r="2.5" transform="translate(2389 1045)"/><circle class="d" cx="2.5" cy="2.5" r="2.5" transform="translate(2329 965)"/><circle class="d" cx="2.5" cy="2.5" r="2.5" transform="translate(2449 965)"/><circle class="d" cx="2.5" cy="2.5" r="2.5" transform="translate(2329 1045)"/><circle class="d" cx="2.5" cy="2.5" r="2.5" transform="translate(2449 1045)"/></g><g class="c" transform="translate(-1231 1072)"><circle class="d" cx="2.5" cy="2.5" r="2.5" transform="translate(2229 905)"/><circle class="d" cx="2.5" cy="2.5" r="2.5" transform="translate(2349 905)"/><circle class="d" cx="2.5" cy="2.5" r="2.5" transform="translate(2229 985)"/><circle class="d" cx="2.5" cy="2.5" r="2.5" transform="translate(2349 985)"/><circle class="d" cx="2.5" cy="2.5" r="2.5" transform="translate(2289 905)"/><circle class="d" cx="2.5" cy="2.5" r="2.5" transform="translate(2409 905)"/><circle class="d" cx="2.5" cy="2.5" r="2.5" transform="translate(2289 985)"/><circle class="d" cx="2.5" cy="2.5" r="2.5" transform="translate(2409 985)"/><circle class="d" cx="2.5" cy="2.5" r="2.5" transform="translate(2229 945)"/><circle class="d" cx="2.5" cy="2.5" r="2.5" transform="translate(2349 945)"/><circle class="d" cx="2.5" cy="2.5" r="2.5" transform="translate(2229 1025)"/><circle class="d" cx="2.5" cy="2.5" r="2.5" transform="translate(2349 1025)"/><circle class="d" cx="2.5" cy="2.5" r="2.5" transform="translate(2289 945)"/><circle class="d" cx="2.5" cy="2.5" r="2.5" transform="translate(2409 945)"/><circle class="d" cx="2.5" cy="2.5" r="2.5" transform="translate(2289 1025)"/><circle class="d" cx="2.5" cy="2.5" r="2.5" transform="translate(2409 1025)"/><circle class="d" cx="2.5" cy="2.5" r="2.5" transform="translate(2229 925)"/><circle class="d" cx="2.5" cy="2.5" r="2.5" transform="translate(2349 925)"/><circle class="d" cx="2.5" cy="2.5" r="2.5" transform="translate(2229 1005)"/><circle class="d" cx="2.5" cy="2.5" r="2.5" transform="translate(2349 1005)"/><circle class="d" cx="2.5" cy="2.5" r="2.5" transform="translate(2289 925)"/><circle class="d" cx="2.5" cy="2.5" r="2.5" transform="translate(2409 925)"/><circle class="d" cx="2.5" cy="2.5" r="2.5" transform="translate(2289 1005)"/><circle class="d" cx="2.5" cy="2.5" r="2.5" transform="translate(2409 1005)"/><circle class="d" cx="2.5" cy="2.5" r="2.5" transform="translate(2229 965)"/><circle class="d" cx="2.5" cy="2.5" r="2.5" transform="translate(2349 965)"/><circle class="d" cx="2.5" cy="2.5" r="2.5" transform="translate(2229 1045)"/><circle class="d" cx="2.5" cy="2.5" r="2.5" transform="translate(2349 1045)"/><circle class="d" cx="2.5" cy="2.5" r="2.5" transform="translate(2289 965)"/><circle class="d" cx="2.5" cy="2.5" r="2.5" transform="translate(2409 965)"/><circle class="d" cx="2.5" cy="2.5" r="2.5" transform="translate(2289 1045)"/><circle class="d" cx="2.5" cy="2.5" r="2.5" transform="translate(2409 1045)"/><circle class="d" cx="2.5" cy="2.5" r="2.5" transform="translate(2249 905)"/><circle class="d" cx="2.5" cy="2.5" r="2.5" transform="translate(2369 905)"/><circle class="d" cx="2.5" cy="2.5" r="2.5" transform="translate(2249 985)"/><circle class="d" cx="2.5" cy="2.5" r="2.5" transform="translate(2369 985)"/><circle class="d" cx="2.5" cy="2.5" r="2.5" transform="translate(2309 905)"/><circle class="d" cx="2.5" cy="2.5" r="2.5" transform="translate(2429 905)"/><circle class="d" cx="2.5" cy="2.5" r="2.5" transform="translate(2309 985)"/><circle class="d" cx="2.5" cy="2.5" r="2.5" transform="translate(2429 985)"/><circle class="d" cx="2.5" cy="2.5" r="2.5" transform="translate(2249 945)"/><circle class="d" cx="2.5" cy="2.5" r="2.5" transform="translate(2369 945)"/><circle class="d" cx="2.5" cy="2.5" r="2.5" transform="translate(2249 1025)"/><circle class="d" cx="2.5" cy="2.5" r="2.5" transform="translate(2369 1025)"/><circle class="d" cx="2.5" cy="2.5" r="2.5" transform="translate(2309 945)"/><circle class="d" cx="2.5" cy="2.5" r="2.5" transform="translate(2429 945)"/><circle class="d" cx="2.5" cy="2.5" r="2.5" transform="translate(2309 1025)"/><circle class="d" cx="2.5" cy="2.5" r="2.5" transform="translate(2429 1025)"/><circle class="d" cx="2.5" cy="2.5" r="2.5" transform="translate(2249 925)"/><circle class="d" cx="2.5" cy="2.5" r="2.5" transform="translate(2369 925)"/><circle class="d" cx="2.5" cy="2.5" r="2.5" transform="translate(2249 1005)"/><circle class="d" cx="2.5" cy="2.5" r="2.5" transform="translate(2369 1005)"/><circle class="d" cx="2.5" cy="2.5" r="2.5" transform="translate(2309 925)"/><circle class="d" cx="2.5" cy="2.5" r="2.5" transform="translate(2429 925)"/><circle class="d" cx="2.5" cy="2.5" r="2.5" transform="translate(2309 1005)"/><circle class="d" cx="2.5" cy="2.5" r="2.5" transform="translate(2429 1005)"/><circle class="d" cx="2.5" cy="2.5" r="2.5" transform="translate(2249 965)"/><circle class="d" cx="2.5" cy="2.5" r="2.5" transform="translate(2369 965)"/><circle class="d" cx="2.5" cy="2.5" r="2.5" transform="translate(2249 1045)"/><circle class="d" cx="2.5" cy="2.5" r="2.5" transform="translate(2369 1045)"/><circle class="d" cx="2.5" cy="2.5" r="2.5" transform="translate(2309 965)"/><circle class="d" cx="2.5" cy="2.5" r="2.5" transform="translate(2429 965)"/><circle class="d" cx="2.5" cy="2.5" r="2.5" transform="translate(2309 1045)"/><circle class="d" cx="2.5" cy="2.5" r="2.5" transform="translate(2429 1045)"/><circle class="d" cx="2.5" cy="2.5" r="2.5" transform="translate(2269 905)"/><circle class="d" cx="2.5" cy="2.5" r="2.5" transform="translate(2389 905)"/><circle class="d" cx="2.5" cy="2.5" r="2.5" transform="translate(2269 985)"/><circle class="d" cx="2.5" cy="2.5" r="2.5" transform="translate(2389 985)"/><circle class="d" cx="2.5" cy="2.5" r="2.5" transform="translate(2329 905)"/><circle class="d" cx="2.5" cy="2.5" r="2.5" transform="translate(2449 905)"/><circle class="d" cx="2.5" cy="2.5" r="2.5" transform="translate(2329 985)"/><circle class="d" cx="2.5" cy="2.5" r="2.5" transform="translate(2449 985)"/><circle class="d" cx="2.5" cy="2.5" r="2.5" transform="translate(2269 945)"/><circle class="d" cx="2.5" cy="2.5" r="2.5" transform="translate(2389 945)"/><circle class="d" cx="2.5" cy="2.5" r="2.5" transform="translate(2269 1025)"/><circle class="d" cx="2.5" cy="2.5" r="2.5" transform="translate(2389 1025)"/><circle class="d" cx="2.5" cy="2.5" r="2.5" transform="translate(2329 945)"/><circle class="d" cx="2.5" cy="2.5" r="2.5" transform="translate(2449 945)"/><circle class="d" cx="2.5" cy="2.5" r="2.5" transform="translate(2329 1025)"/><circle class="d" cx="2.5" cy="2.5" r="2.5" transform="translate(2449 1025)"/><circle class="d" cx="2.5" cy="2.5" r="2.5" transform="translate(2269 925)"/><circle class="d" cx="2.5" cy="2.5" r="2.5" transform="translate(2389 925)"/><circle class="d" cx="2.5" cy="2.5" r="2.5" transform="translate(2269 1005)"/><circle class="d" cx="2.5" cy="2.5" r="2.5" transform="translate(2389 1005)"/><circle class="d" cx="2.5" cy="2.5" r="2.5" transform="translate(2329 925)"/><circle class="d" cx="2.5" cy="2.5" r="2.5" transform="translate(2449 925)"/><circle class="d" cx="2.5" cy="2.5" r="2.5" transform="translate(2329 1005)"/><circle class="d" cx="2.5" cy="2.5" r="2.5" transform="translate(2449 1005)"/><circle class="d" cx="2.5" cy="2.5" r="2.5" transform="translate(2269 965)"/><circle class="d" cx="2.5" cy="2.5" r="2.5" transform="translate(2389 965)"/><circle class="d" cx="2.5" cy="2.5" r="2.5" transform="translate(2269 1045)"/><circle class="d" cx="2.5" cy="2.5" r="2.5" transform="translate(2389 1045)"/><circle class="d" cx="2.5" cy="2.5" r="2.5" transform="translate(2329 965)"/><circle class="d" cx="2.5" cy="2.5" r="2.5" transform="translate(2449 965)"/><circle class="d" cx="2.5" cy="2.5" r="2.5" transform="translate(2329 1045)"/><circle class="d" cx="2.5" cy="2.5" r="2.5" transform="translate(2449 1045)"/></g></g></svg>