<svg xmlns="http://www.w3.org/2000/svg" xmlns:xlink="http://www.w3.org/1999/xlink" width="1920" height="1006.435" viewBox="0 0 1920 1006.435"><defs><style>.a,.b{fill:#4343ff;}.a{opacity:0.46;}.b{opacity:0.5;}.c,.f{opacity:0.94;}.c{fill:url(#a);}.d{fill:url(#b);}.e{fill:#ff851c;opacity:0.24;}.f{fill:url(#c);}.g,.h{stroke:none;}.h{fill:#707070;}</style><linearGradient id="a" x1="-0.046" y1="0.918" x2="1" y2="0.02" gradientUnits="objectBoundingBox"><stop offset="0" stop-color="#e56a00"/><stop offset="1" stop-color="#f59e2d"/></linearGradient><linearGradient id="b" x1="-0.008" y1="0.946" x2="1.029" y2="0.333" gradientUnits="objectBoundingBox"><stop offset="0" stop-color="#d96704"/><stop offset="1" stop-color="#f29e0e"/></linearGradient><linearGradient id="c" x1="0.008" y1="0.851" x2="1" y2="0.02" gradientUnits="objectBoundingBox"><stop offset="0" stop-color="#d56b10"/><stop offset="1" stop-color="#f6a337"/></linearGradient></defs><g transform="translate(0 -2)"><g class="a" transform="translate(0 2)"><path class="g" d="M 195.5005950927734 952.5 C 178.343994140625 952.5 161.0451812744141 951.5955200195313 144.0845947265625 949.811767578125 C 127.3781204223633 948.0546875 110.5991744995117 945.40234375 94.21376800537109 941.9285888671875 C 78.04635620117188 938.5009155273438 61.87917709350586 934.1924438476563 46.16129302978516 929.122802734375 C 30.72596549987793 924.1441650390625 15.36549091339111 918.3159790039063 0.5 911.7977905273438 L 0.5 21.20232963562012 C 18.85601806640625 13.15341949462891 37.88576126098633 6.189053058624268 57.06739807128906 0.5 L 333.9334106445313 0.5 C 346.364501953125 4.186928272247314 358.7986450195313 8.429647445678711 370.8935241699219 13.11141204833984 C 382.912109375 17.76364707946777 394.8963623046875 22.96576499938965 406.5133056640625 28.57329368591309 C 429.5664672851563 39.70117568969727 451.9302368164063 52.77988052368164 472.9833068847656 67.44635009765625 C 493.8829345703125 82.00588226318359 513.8040161132813 98.34752655029297 532.1930541992188 116.0174102783203 C 550.5667114257813 133.6724700927734 567.6812744140625 152.9132995605469 583.0614013671875 173.2052917480469 C 598.5291748046875 193.6129455566406 612.4735107421875 215.3890533447266 624.507080078125 237.9285888671875 C 636.6844482421875 260.7375183105469 647.094970703125 284.68505859375 655.4491577148438 309.1058959960938 C 672.7352905273438 359.6357727050781 681.5 412.5909423828125 681.5 466.5004577636719 C 681.5 483.0784606933594 680.65576171875 499.7969360351563 678.9908447265625 516.191650390625 C 677.3499755859375 532.3489379882813 674.8721313476563 548.5843505859375 671.626220703125 564.4468383789063 C 668.4222412109375 580.10400390625 664.39306640625 595.7741088867188 659.6504516601563 611.02197265625 C 654.9609375 626.0991821289063 649.4625854492188 641.1220092773438 643.307861328125 655.6731567382813 C 637.2101440429688 670.0899047851563 630.32470703125 684.38330078125 622.8427124023438 698.15625 C 615.4140014648438 711.831298828125 607.2236328125 725.3130493164063 598.4992065429688 738.2269287109375 C 581.1131591796875 763.961669921875 561.1466064453125 788.1613159179688 539.1539916992188 810.1538696289063 C 517.1614379882813 832.1466064453125 492.9616394042969 852.1131591796875 467.22705078125 869.4992065429688 C 454.3131713867188 878.2236328125 440.8314208984375 886.4140014648438 427.1563415527344 893.8427124023438 C 413.3834228515625 901.32470703125 399.0899963378906 908.2101440429688 384.6733093261719 914.307861328125 C 370.1221313476563 920.4625854492188 355.0993041992188 925.9609375 340.0220031738281 930.6504516601563 C 324.7742309570313 935.39306640625 309.1041259765625 939.4222412109375 293.4469299316406 942.626220703125 C 277.58447265625 945.8721313476563 261.3490600585938 948.3499755859375 245.1917572021484 949.9908447265625 C 228.7970581054688 951.65576171875 212.0785827636719 952.5 195.5005950927734 952.5 Z"/><path class="h" d="M 195.5005950927734 952 C 212.061767578125 952 228.7632904052734 951.1566772460938 245.1412963867188 949.493408203125 C 261.2818908691406 947.854248046875 277.5005798339844 945.3789672851563 293.3467102050781 942.1363525390625 C 308.9876403808594 938.935791015625 324.6415405273438 934.9107055664063 339.87353515625 930.1730346679688 C 354.9351806640625 925.4883422851563 369.9423522949219 919.9956665039063 384.4784851074219 913.847412109375 C 398.8803405761719 907.7559814453125 413.158935546875 900.8775024414063 426.9176330566406 893.4033813476563 C 440.5787048339844 885.9822387695313 454.0466003417969 877.8003540039063 466.9471740722656 869.0848388671875 C 492.6554260253906 851.7167358398438 516.8303833007813 831.7704467773438 538.8004760742188 809.8003540039063 C 560.7705688476563 787.8302612304688 580.7167358398438 763.6552734375 598.0848388671875 737.9470825195313 C 606.8003540039063 725.0464477539063 614.9822387695313 711.57861328125 622.4033813476563 697.9175415039063 C 629.8776245117188 684.1588134765625 636.7559814453125 669.8802490234375 642.847412109375 655.4783325195313 C 648.9956665039063 640.9423828125 654.4883422851563 625.93505859375 659.1730346679688 610.8734130859375 C 663.9107055664063 595.6414184570313 667.935791015625 579.987548828125 671.1363525390625 564.3466186523438 C 674.3789672851563 548.50048828125 676.854248046875 532.28173828125 678.493408203125 516.1411743164063 C 680.1566772460938 499.76318359375 681 483.0616455078125 681 466.5004577636719 C 681 412.6461181640625 672.2443237304688 359.7454223632813 654.9761352539063 309.2676391601563 C 646.6304931640625 284.8722229003906 636.2308349609375 260.9494018554688 624.0659790039063 238.1640014648438 C 612.0447998046875 215.6476440429688 598.1148071289063 193.8939971923828 582.6629638671875 173.5072937011719 C 567.298583984375 153.2359924316406 550.2015380859375 134.0149383544922 531.8466796875 116.3778839111328 C 513.4764404296875 98.72611999511719 493.5757751464844 82.40117645263672 472.6975402832031 67.85659027099609 C 451.6661071777344 53.20529556274414 429.3254089355469 40.13999938964844 406.2958679199219 29.02352905273438 C 394.6910705566406 23.42188262939453 382.7192993164063 18.22517585754395 370.7130737304688 13.57764720916748 C 358.6535339355469 8.909679412841797 346.255859375 4.678287982940674 333.8611145019531 1 L 57.14011764526367 1 C 38.10585021972656 6.648449420928955 19.22257995605469 13.55380821228027 1 21.52919006347656 L 1 911.470947265625 C 15.75705718994141 917.9295654296875 30.9987735748291 923.7068481445313 46.31482315063477 928.6469116210938 C 62.01635360717773 933.71142578125 78.16682434082031 938.0154418945313 94.31741333007813 941.4393920898438 C 110.6859970092773 944.90966796875 127.4476470947266 947.5592041015625 144.1369476318359 949.314453125 C 161.0802307128906 951.0964965820313 178.3614044189453 952 195.5005950927734 952 M 195.5005950927734 953 C 125.967414855957 953 59.82576370239258 938.40576171875 0 912.1243286132813 L 0 20.87576484680176 C 18.42741203308105 12.78058815002441 37.45623397827148 5.791646957397461 56.99470520019531 0 L 334.006103515625 0 C 535.224365234375 59.64599990844727 682 245.9292907714844 682 466.5004577636719 C 682 735.1864624023438 464.1865844726563 953 195.5005950927734 953 Z"/></g><path class="b" d="M776.115,835.44C328.356,709.291,0,785.688,0,785.688V0H1920V708.184c-199.89,117.5-447.63,187.243-714.581,187.251C1066.2,895.439,921.779,876.479,776.115,835.44Z" transform="translate(0 113)"/><path class="c" d="M739,896.376C312.652,770.765,0,846.836,0,846.836V0H1920V857.89C1772.909,958.2,1583.228,999.15,1376.866,999.154,1172.261,999.158,951.259,958.913,739,896.376Z" transform="translate(0 2)"/><path class="d" d="M739,768.086C312.652,660.452,0,725.635,0,725.635V0H1920V735.108c-147.091,85.956-336.772,121.043-543.133,121.046C1172.261,856.157,951.259,821.672,739,768.086Z" transform="translate(0 12)"/><path class="e" d="M776.115,696.441C328.356,570.291,0,646.688,0,646.688V0H1920V569.183c-199.89,117.5-447.632,187.243-714.582,187.251C1066.2,756.439,921.779,737.479,776.115,696.441Z" transform="translate(0 2)"/><path class="f" d="M-8253.133-5661.846c-25.231,0-51.288-.435-77.446-1.295-25.689-.843-52.164-2.118-78.689-3.788-51.624-3.249-105.432-8.116-159.928-14.466-103.441-12.053-211.713-29.673-321.806-52.37-46.171-9.519-93.259-17.822-139.956-24.68-42.889-6.3-86.465-11.529-129.52-15.543-74.106-6.91-148.395-10.414-220.8-10.414-35.348,0-70.414.84-104.226,2.5-27.048,1.324-53.369,3.171-78.234,5.49-42.406,3.955-66.026,7.945-66.26,7.985V-6361h1920v600.3c-18.153,8.663-37.365,16.872-57.1,24.4-19.41,7.4-39.864,14.354-60.793,20.657-20.574,6.2-42.167,11.938-64.179,17.064-21.63,5.038-44.26,9.622-67.261,13.624-22.592,3.931-46.156,7.407-70.04,10.333-23.45,2.873-47.848,5.293-72.515,7.194-24.2,1.865-49.326,3.28-74.686,4.206C-8201.465-5662.307-8227.221-5661.846-8253.133-5661.846Z" transform="translate(9630 6421)"/></g></svg>